<svg id="eFzWc1IJ6ey1" xmlns="http://www.w3.org/2000/svg" xmlns:xlink="http://www.w3.org/1999/xlink" viewBox="0 0 64 64" shape-rendering="geometricPrecision" text-rendering="geometricPrecision" style="background-color:transparent"><path id="eFzWc1IJ6ey2" d="M35,19c-2.121.0024-4.1544.846-5.6542,2.3458s-2.3434,3.5332-2.3458,5.6542c0,4.038,6.421,14.368,7.153,15.532.09.1434.2149.2616.3631.3435.1481.0819.3146.1249.4839.1249s.3358-.043.4839-.1249c.1482-.0819.2731-.2001.3631-.3435C36.579,41.368,43,31.038,43,27c-.0024-2.121-.846-4.1544-2.3458-5.6542s-3.5332-2.3434-5.6542-2.3458v0Zm0,21.087c-2.223-3.7-6-10.521-6-13.087c0-1.5913.6321-3.1174,1.7574-4.2426s2.6513-1.7574,4.2426-1.7574s3.1174.6321,4.2426,1.7574s1.7574,2.6513,1.7574,4.2426c0,2.564-3.777,9.388-6,13.087Z" transform="translate(.000077-43.0004)" fill="#e70707"/><path id="eFzWc1IJ6ey3" d="M35,23c-.7911,0-1.5645.2346-2.2223.6741s-1.1705,1.0643-1.4732,1.7952c-.3028.7309-.382,1.5351-.2276,2.3111s.5353,1.4886,1.0947,2.048s1.2721.9404,2.048,1.0947c.776.1544,1.5802.0752,2.3111-.2276.7309-.3027,1.3557-.8154,1.7952-1.4732s.6741-1.4312.6741-2.2223c0-1.0609-.4214-2.0783-1.1716-2.8284C37.0783,23.4214,36.0609,23,35,23Zm0,6c-.3956,0-.7822-.1173-1.1111-.3371s-.5853-.5321-.7367-.8975c-.1513-.3655-.1909-.7676-.1138-1.1556.0772-.3879.2677-.7443.5474-1.024s.6361-.4702,1.024-.5474c.388-.0771.7901-.0375,1.1556.1138s.6778.4078.8975.7367.3371.7155.3371,1.1111c0,.5304-.2107,1.0391-.5858,1.4142s-.8838.5858-1.4142.5858Z" transform="translate(0-30.999846)" fill="#dc0303"/><path d="M14,29.286c-1.5907.0019-3.1158.6346-4.24059,1.7594s-1.75756,2.6499-1.75941,4.2406c0,2.964,4.626,10.407,5.153,11.246.09.1434.2149.2616.3631.3435s.3146.1249.4839.1249.3358-.043.4839-.1249.2731-.2001.3631-.3435C15.374,45.693,20,38.25,20,35.286c-.0019-1.5907-.6346-3.1158-1.7594-4.2406s-2.6499-1.7575-4.2406-1.7594v0Zm0,14.793c-1.806-3.044-4-7.247-4-8.793c0-1.0609.4214-2.0783,1.1716-2.8284s1.7675-1.1716,2.8284-1.1716s2.0783.4214,2.8284,1.1716C17.5786,33.2077,18,34.2251,18,35.286c0,1.546-2.194,5.749-4,8.793Z"/><path d="M54.0561,11.689c.5124-1.07.8319-2.22196.944-3.40299.0016-1.25222-.389-2.47349-1.1171-3.49229s-1.757-1.78394-2.9423-2.18796-2.4673-.42663-3.666-.06464c-1.1988.36199-2.2541,1.09039-3.0176,2.08289-3.8518-1.73872-8.031-2.6334-12.257-2.624-6.8987-.00922-13.5903,2.35628-18.9505,6.69904s-9.06242,10.39815-10.48448,17.14865-.47735,13.7847,2.6754,19.9208s8.32138,11.0001,14.63748,13.7747s13.3948,3.2908,20.0465,1.4617c6.6518-1.829,12.4714-5.8918,16.4809-11.5057s5.9646-12.4367,5.5367-19.3221-3.2124-13.4137-7.886-18.4881v0Zm-5.056-7.40299c1.0609,0,2.0783.42143,2.8284,1.17158.7502.75014,1.1716,1.76756,1.1716,2.82842c0,1.546-2.194,5.74899-4,8.79299-1.806-3.044-4-7.24699-4-8.79299c0-.52528.1035-1.04543.3045-1.53073s.4956-.92626.8671-1.29769c.7501-.75015,1.7675-1.17158,2.8284-1.17158v0Zm-27.95,1.946l3.185.635.437,1.313-5.814.83c-.1719.02464-.3344.09362-.4715.20014s-.2442.24691-.3106.40736-.0899.33541-.0681.50769.088.3359.1922.4748l2.653,3.538-2.6,6.076-5.743,2.153l1.455-5.093c.0532-.1865.0509-.3844-.0064-.5697s-.1673-.3499-.3165-.4738-.3312-.2017-.5239-.224-.3876.012-.5612.0985l-3.99999,2c-.12408.0622-.23386.1495-.32235.2564s-.15376.2311-.19165.3646l-2,7c-.01081.0361-.01917.0728-.025.11L5.5601,28.558l-.986-2.211c.92283-4.4321,2.90283-8.5756,5.7715-12.0778s6.541-6.25953,10.7045-8.03719v0ZM4.0001,32c0-.63.029-1.254.07-1.874l1.017,2.281c.07864.1765.20671.3264.36874.4316.16202.1053.35106.1613.54426.1614.04246-.0002.08486-.0029.127-.008.21315-.0274.41179-.1227.56651-.2719s.25729-.3441.29249-.5561l.99101-5.943L9.8411,19.7l1.573-.786-1.375,4.815c-.05078.178-.05118.3665-.0011.5447s.1485.339.2845.4645c.136.1256.3041.2109.4857.2465s.3696.0202.5429-.0447l8-3c.1264-.0475.242-.12.3396-.2134s.1753-.2054.2284-.3296l3-7c.0698-.1619.0956-.3394.0747-.5145s-.0877-.3416-.1937-.4825l-1.987-2.649l5.329-.76099c.145-.02075.2836-.07309.4061-.15331s.2259-.18636.3029-.31093.1256-.26453.1426-.40998.0017-.29285-.0446-.43178l-1-3c-.0555-.16673-.1539-.31589-.2854-.43245s-.2914-.19644-.4636-.23155l-.39-.078c2.3455-.62534,4.7626-.94202,7.19-.942.243,0,.483.014.724.02l-4.171,2.085c-.1415.07092-.2641.17439-.3577.30191s-.1558.27546-.1812.43165-.0133.31617.0352.46679.132.2876.2437.39965l4.707,4.70899v3.909l-9.372,3.748c-.1543.062-.2907.1615-.3969.2895s-.1787.2804-.2111.4435l-2,10c-.0318.1609-.0235.3272.0241.4841s.1331.2998.2489.4159l6.354,6.355-4.357,5.231-5.93,4.941c-.1862.1548-.3099.3719-.3481.611s.0115.4839.1401.689l5,8c.0622.0994.1414.1871.234.259l1.161.9c-5.6667-1.8023-10.614-5.3589-14.12744-10.1563s-5.41135-10.5873-5.41956-16.5337v0Zm24.13,27.726l-4.376-3.407-4.443-7.109l5.329-4.441c.0461-.0391.0889-.0819.128-.128l5-6c.16-.1917.2424-.4364.2311-.6858s-.1155-.4857-.2921-.6622l-6.622-6.622l1.79-8.943l9.5-3.8c.1848-.0747.3431-.203.4544-.3684s.1708-.3602.1706-.5596v-5c-.0001-.2652-.1054-.5195-.293-.707l-4.019-4.01899l5.824-2.911c2.345.3784,4.6308,1.06011,6.8,2.028-.2061.61057-.3114,1.2506-.312,1.895c0,2.96399,4.626,10.40699,5.153,11.24599.09.1434.2149.2616.3631.3435s.3146.1249.4839.1249.3358-.043.4839-.1249.2731-.2001.3631-.3435c.3-.481,1.951-3.134,3.3-5.869c2.5317,2.9049,4.431,6.305,5.577,9.984l-2.334,8.747-1.839-1.226c-.1506-.0994-.3252-.1562-.5054-.1644s-.3593.0324-.5183.1177-.2919.212-.3848.3667-.142.3316-.1425.512v7.719l-6.757-1.689c-.1334-.0333-.2723-.0388-.408-.016l-6,1c-.1904.0319-.3676.1181-.51.2485-.1425.1303-.2442.299-.2928.4859s-.0422.3838.0187.567c.0608.1832.1734.345.3241.4656l5,4c.1203.0963.2613.1634.4119.1962s.3066.0303.4561-.0072l3.153-.788l1.451,3.627-5.606,6.541c-.0926.108-.1611.2345-.201.3711s-.05.2801-.03.4209l.288,2.006c-5.0089,2.461-10.6421,3.3592-16.168,2.578v0Zm18.043-3.592l-.119-.827l5.7-6.657c.1188-.1385.1974-.3068.2274-.4868s.0101-.3647-.0574-.5342l-2-5c-.0896-.2249-.2578-.4097-.4733-.5201-.2156-.1103-.4638-.1387-.6987-.0799l-3.519.88-2.864-2.292l3.585-.6l7.8,1.949c.1474.0381.3015.0415.4504.0099s.2884-.0973.4076-.1919c.1199-.0927.2171-.2115.2843-.3473s.1027-.2852.1037-.4367v-7.132l1.445.964c.1322.0882.2835.1436.4414.1616s.3178-.0018.4665-.058.2819-.1468.3885-.2646.1836-.2594.2246-.413l1.72-6.445c.8355,5.5305-.0053,11.1844-2.4139,16.2325s-6.2746,9.2586-11.0991,12.0885v0Z"/>
<script><![CDATA[
!function(t,n){"object"==typeof exports&&"undefined"!=typeof module?module.exports=n():"function"==typeof __SVGATOR_DEFINE__&&__SVGATOR_DEFINE__.amd?__SVGATOR_DEFINE__(n):((t="undefined"!=typeof globalThis?globalThis:t||self).__SVGATOR_PLAYER__=t.__SVGATOR_PLAYER__||{},t.__SVGATOR_PLAYER__["5c7f360c"]=n())}(this,(function(){"use strict";function t(t,n){var e=Object.keys(t);if(Object.getOwnPropertySymbols){var r=Object.getOwnPropertySymbols(t);n&&(r=r.filter((function(n){return Object.getOwnPropertyDescriptor(t,n).enumerable}))),e.push.apply(e,r)}return e}function n(n){for(var e=1;e<arguments.length;e++){var r=null!=arguments[e]?arguments[e]:{};e%2?t(Object(r),!0).forEach((function(t){o(n,t,r[t])})):Object.getOwnPropertyDescriptors?Object.defineProperties(n,Object.getOwnPropertyDescriptors(r)):t(Object(r)).forEach((function(t){Object.defineProperty(n,t,Object.getOwnPropertyDescriptor(r,t))}))}return n}function e(t){return(e="function"==typeof Symbol&&"symbol"==typeof Symbol.iterator?function(t){return typeof t}:function(t){return t&&"function"==typeof Symbol&&t.constructor===Symbol&&t!==Symbol.prototype?"symbol":typeof t})(t)}function r(t,n){if(!(t instanceof n))throw new TypeError("Cannot call a class as a function")}function i(t,n){for(var e=0;e<n.length;e++){var r=n[e];r.enumerable=r.enumerable||!1,r.configurable=!0,"value"in r&&(r.writable=!0),Object.defineProperty(t,r.key,r)}}function u(t,n,e){return n&&i(t.prototype,n),e&&i(t,e),t}function o(t,n,e){return n in t?Object.defineProperty(t,n,{value:e,enumerable:!0,configurable:!0,writable:!0}):t[n]=e,t}function a(t){return(a=Object.setPrototypeOf?Object.getPrototypeOf:function(t){return t.__proto__||Object.getPrototypeOf(t)})(t)}function l(t,n){return(l=Object.setPrototypeOf||function(t,n){return t.__proto__=n,t})(t,n)}function s(){if("undefined"==typeof Reflect||!Reflect.construct)return!1;if(Reflect.construct.sham)return!1;if("function"==typeof Proxy)return!0;try{return Boolean.prototype.valueOf.call(Reflect.construct(Boolean,[],(function(){}))),!0}catch(t){return!1}}function f(t,n,e){return(f=s()?Reflect.construct:function(t,n,e){var r=[null];r.push.apply(r,n);var i=new(Function.bind.apply(t,r));return e&&l(i,e.prototype),i}).apply(null,arguments)}function c(t,n){if(n&&("object"==typeof n||"function"==typeof n))return n;if(void 0!==n)throw new TypeError("Derived constructors may only return object or undefined");return function(t){if(void 0===t)throw new ReferenceError("this hasn't been initialised - super() hasn't been called");return t}(t)}function h(t,n,e){return(h="undefined"!=typeof Reflect&&Reflect.get?Reflect.get:function(t,n,e){var r=function(t,n){for(;!Object.prototype.hasOwnProperty.call(t,n)&&null!==(t=a(t)););return t}(t,n);if(r){var i=Object.getOwnPropertyDescriptor(r,n);return i.get?i.get.call(e):i.value}})(t,n,e||t)}function v(t){return function(t){if(Array.isArray(t))return y(t)}(t)||function(t){if("undefined"!=typeof Symbol&&null!=t[Symbol.iterator]||null!=t["@@iterator"])return Array.from(t)}(t)||function(t,n){if(!t)return;if("string"==typeof t)return y(t,n);var e=Object.prototype.toString.call(t).slice(8,-1);"Object"===e&&t.constructor&&(e=t.constructor.name);if("Map"===e||"Set"===e)return Array.from(t);if("Arguments"===e||/^(?:Ui|I)nt(?:8|16|32)(?:Clamped)?Array$/.test(e))return y(t,n)}(t)||function(){throw new TypeError("Invalid attempt to spread non-iterable instance.\nIn order to be iterable, non-array objects must have a [Symbol.iterator]() method.")}()}function y(t,n){(null==n||n>t.length)&&(n=t.length);for(var e=0,r=new Array(n);e<n;e++)r[e]=t[e];return r}function g(t,n,e){if(Number.isInteger(t))return t;var r=Math.pow(10,n);return Math[e]((+t+Number.EPSILON)*r)/r}Number.isInteger||(Number.isInteger=function(t){return"number"==typeof t&&isFinite(t)&&Math.floor(t)===t}),Number.EPSILON||(Number.EPSILON=2220446049250313e-31);var p=d(Math.pow(10,-6));function d(t){var n=arguments.length>1&&void 0!==arguments[1]?arguments[1]:6;return g(t,n,"round")}function m(t,n){var e=arguments.length>2&&void 0!==arguments[2]?arguments[2]:p;return Math.abs(t-n)<e}d(Math.pow(10,-2)),d(Math.pow(10,-4));var b=Math.PI/180;function w(t){return t*b}function x(t){return t/b}function _(t){return t}function A(t,n,e){var r=1-e;return 3*e*r*(t*r+n*e)+e*e*e}function k(){var t=arguments.length>0&&void 0!==arguments[0]?arguments[0]:0,n=arguments.length>1&&void 0!==arguments[1]?arguments[1]:0,e=arguments.length>2&&void 0!==arguments[2]?arguments[2]:1,r=arguments.length>3&&void 0!==arguments[3]?arguments[3]:1;return t<0||t>1||e<0||e>1?null:m(t,n)&&m(e,r)?_:function(i){if(i<=0)return t>0?i*n/t:0===n&&e>0?i*r/e:0;if(i>=1)return e<1?1+(i-1)*(r-1)/(e-1):1===e&&t<1?1+(i-1)*(n-1)/(t-1):1;for(var u,o=0,a=1;o<a;){var l=A(t,e,u=(o+a)/2);if(m(i,l))break;l<i?o=u:a=u}return A(n,r,u)}}function S(){return 1}function O(t){return 1===t?1:0}function j(){var t=arguments.length>0&&void 0!==arguments[0]?arguments[0]:1,n=arguments.length>1&&void 0!==arguments[1]?arguments[1]:0;if(1===t){if(0===n)return O;if(1===n)return S}var e=1/t;return function(t){return t>=1?1:(t+=n*e)-t%e}}var M=Math.sin,E=Math.cos,P=Math.acos,I=Math.asin,R=Math.tan,F=Math.atan2,N=Math.sqrt,T=function(){function t(){var n=arguments.length>0&&void 0!==arguments[0]?arguments[0]:1,e=arguments.length>1&&void 0!==arguments[1]?arguments[1]:0,i=arguments.length>2&&void 0!==arguments[2]?arguments[2]:0,u=arguments.length>3&&void 0!==arguments[3]?arguments[3]:1,o=arguments.length>4&&void 0!==arguments[4]?arguments[4]:0,a=arguments.length>5&&void 0!==arguments[5]?arguments[5]:0;r(this,t),this.m=[n,e,i,u,o,a],this.i=null,this.w=null,this.s=null}return u(t,[{key:"determinant",get:function(){var t=this.m;return t[0]*t[3]-t[1]*t[2]}},{key:"isIdentity",get:function(){if(null===this.i){var t=this.m;this.i=1===t[0]&&0===t[1]&&0===t[2]&&1===t[3]&&0===t[4]&&0===t[5]}return this.i}},{key:"point",value:function(t,n){var e=this.m;return{x:e[0]*t+e[2]*n+e[4],y:e[1]*t+e[3]*n+e[5]}}},{key:"translateSelf",value:function(){var t=arguments.length>0&&void 0!==arguments[0]?arguments[0]:0,n=arguments.length>1&&void 0!==arguments[1]?arguments[1]:0;if(!t&&!n)return this;var e=this.m;return e[4]+=e[0]*t+e[2]*n,e[5]+=e[1]*t+e[3]*n,this.w=this.s=this.i=null,this}},{key:"rotateSelf",value:function(){var t=arguments.length>0&&void 0!==arguments[0]?arguments[0]:0;if(t%=360){t=w(t);var n=M(t),e=E(t),r=this.m,i=r[0],u=r[1];r[0]=i*e+r[2]*n,r[1]=u*e+r[3]*n,r[2]=r[2]*e-i*n,r[3]=r[3]*e-u*n,this.w=this.s=this.i=null}return this}},{key:"scaleSelf",value:function(){var t=arguments.length>0&&void 0!==arguments[0]?arguments[0]:1,n=arguments.length>1&&void 0!==arguments[1]?arguments[1]:1;if(1!==t||1!==n){var e=this.m;e[0]*=t,e[1]*=t,e[2]*=n,e[3]*=n,this.w=this.s=this.i=null}return this}},{key:"skewSelf",value:function(t,n){if(n%=360,(t%=360)||n){var e=this.m,r=e[0],i=e[1],u=e[2],o=e[3];t&&(t=R(w(t)),e[2]+=r*t,e[3]+=i*t),n&&(n=R(w(n)),e[0]+=u*n,e[1]+=o*n),this.w=this.s=this.i=null}return this}},{key:"resetSelf",value:function(){var t=arguments.length>0&&void 0!==arguments[0]?arguments[0]:1,n=arguments.length>1&&void 0!==arguments[1]?arguments[1]:0,e=arguments.length>2&&void 0!==arguments[2]?arguments[2]:0,r=arguments.length>3&&void 0!==arguments[3]?arguments[3]:1,i=arguments.length>4&&void 0!==arguments[4]?arguments[4]:0,u=arguments.length>5&&void 0!==arguments[5]?arguments[5]:0,o=this.m;return o[0]=t,o[1]=n,o[2]=e,o[3]=r,o[4]=i,o[5]=u,this.w=this.s=this.i=null,this}},{key:"recomposeSelf",value:function(){var t=arguments.length>0&&void 0!==arguments[0]?arguments[0]:null,n=arguments.length>1&&void 0!==arguments[1]?arguments[1]:null,e=arguments.length>2&&void 0!==arguments[2]?arguments[2]:null,r=arguments.length>3&&void 0!==arguments[3]?arguments[3]:null,i=arguments.length>4&&void 0!==arguments[4]?arguments[4]:null;return this.isIdentity||this.resetSelf(),t&&(t.x||t.y)&&this.translateSelf(t.x,t.y),n&&this.rotateSelf(n),e&&(e.x&&this.skewSelf(e.x,0),e.y&&this.skewSelf(0,e.y)),!r||1===r.x&&1===r.y||this.scaleSelf(r.x,r.y),i&&(i.x||i.y)&&this.translateSelf(i.x,i.y),this}},{key:"decompose",value:function(){var t=arguments.length>0&&void 0!==arguments[0]?arguments[0]:0,n=arguments.length>1&&void 0!==arguments[1]?arguments[1]:0,e=this.m,r=e[0]*e[0]+e[1]*e[1],i=[[e[0],e[1]],[e[2],e[3]]],u=N(r);if(0===u)return{origin:{x:d(e[4]),y:d(e[5])},translate:{x:d(t),y:d(n)},scale:{x:0,y:0},skew:{x:0,y:0},rotate:0};i[0][0]/=u,i[0][1]/=u;var o=e[0]*e[3]-e[1]*e[2]<0;o&&(u=-u);var a=i[0][0]*i[1][0]+i[0][1]*i[1][1];i[1][0]-=i[0][0]*a,i[1][1]-=i[0][1]*a;var l,s=N(i[1][0]*i[1][0]+i[1][1]*i[1][1]);return 0===s?{origin:{x:d(e[4]),y:d(e[5])},translate:{x:d(t),y:d(n)},scale:{x:d(u),y:0},skew:{x:0,y:0},rotate:0}:(i[1][0]/=s,i[1][1]/=s,a/=s,i[1][1]<0?(l=x(P(i[1][1])),i[0][1]<0&&(l=360-l)):l=x(I(i[0][1])),o&&(l=-l),a=x(F(a,N(i[0][0]*i[0][0]+i[0][1]*i[0][1]))),o&&(a=-a),{origin:{x:d(e[4]),y:d(e[5])},translate:{x:d(t),y:d(n)},scale:{x:d(u),y:d(s)},skew:{x:d(a),y:0},rotate:d(l)})}},{key:"multiply",value:function(t){return this.clone().multiplySelf(t)}},{key:"preMultiply",value:function(t){return t.multiply(this)}},{key:"multiplySelf",value:function(t){var n=q(this.m,t.m),e=n.a,r=n.b,i=n.c,u=n.d,o=n.tx,a=n.ty;return this.resetSelf(e,r,i,u,o,a),this}},{key:"preMultiplySelf",value:function(t){var n=q(t.m,this.m),e=n.a,r=n.b,i=n.c,u=n.d,o=n.tx,a=n.ty;return this.resetSelf(e,r,i,u,o,a),this}},{key:"clone",value:function(){var t=this.m;return new this.constructor(t[0],t[1],t[2],t[3],t[4],t[5])}},{key:"toString",value:function(){var t=arguments.length>0&&void 0!==arguments[0]?arguments[0]:" ";if(null===this.s){var n=this.m.map((function(t){return d(t)}));1===n[0]&&0===n[1]&&0===n[2]&&1===n[3]?this.s="translate("+n[4]+t+n[5]+")":this.s="matrix("+n.join(t)+")"}return this.s}}],[{key:"create",value:function(t){return t?Array.isArray(t)?f(this,v(t)):t instanceof this?t.clone():(new this).recomposeSelf(t.origin,t.rotate,t.skew,t.scale,t.translate):new this}}]),t}();function q(t,n){return{a:t[0]*n[0]+t[2]*n[1],b:t[1]*n[0]+t[3]*n[1],c:t[0]*n[2]+t[2]*n[3],d:t[1]*n[2]+t[3]*n[3],tx:t[0]*n[4]+t[2]*n[5]+t[4],ty:t[1]*n[4]+t[3]*n[5]+t[5]}}function B(t,n,e){return t>=.5?e:n}function D(t,n,e){return 0===t||n===e?n:t*(e-n)+n}function L(t,n,e){var r=D(t,n,e);return r<=0?0:r}function C(t,n,e){var r=D(t,n,e);return r<=0?0:r>=1?1:r}function V(t,n,e){return 0===t?n:1===t?e:{x:D(t,n.x,e.x),y:D(t,n.y,e.y)}}function G(t,n,e){var r=function(t,n,e){return Math.round(D(t,n,e))}(t,n,e);return r<=0?0:r>=255?255:r}function z(t,n,e){return 0===t?n:1===t?e:{r:G(t,n.r,e.r),g:G(t,n.g,e.g),b:G(t,n.b,e.b),a:D(t,null==n.a?1:n.a,null==e.a?1:e.a)}}function Y(t,n){for(var e=[],r=0;r<t;r++)e.push(n);return e}function $(t,n){if(--n<=0)return t;var e=(t=Object.assign([],t)).length;do{for(var r=0;r<e;r++)t.push(t[r])}while(--n>0);return t}var U,Q=function(){function t(n){r(this,t),this.list=n,this.length=n.length}return u(t,[{key:"setAttribute",value:function(t,n){for(var e=this.list,r=0;r<this.length;r++)e[r].setAttribute(t,n)}},{key:"removeAttribute",value:function(t){for(var n=this.list,e=0;e<this.length;e++)n[e].removeAttribute(t)}},{key:"style",value:function(t,n){for(var e=this.list,r=0;r<this.length;r++)e[r].style[t]=n}}]),t}(),H=/-./g,J=function(t,n){return n.toUpperCase()};function Z(t){return"function"==typeof t?t:B}function K(t){return t?"function"==typeof t?t:Array.isArray(t)?function(t){var n=arguments.length>1&&void 0!==arguments[1]?arguments[1]:_;if(!Array.isArray(t))return n;switch(t.length){case 1:return j(t[0])||n;case 2:return j(t[0],t[1])||n;case 4:return k(t[0],t[1],t[2],t[3])||n}return n}(t,null):function(t,n){var e=arguments.length>2&&void 0!==arguments[2]?arguments[2]:_;switch(t){case"linear":return _;case"steps":return j(n.steps||1,n.jump||0)||e;case"bezier":case"cubic-bezier":return k(n.x1||0,n.y1||0,n.x2||0,n.y2||0)||e}return e}(t.type,t.value,null):null}function W(t,n,e){var r=arguments.length>3&&void 0!==arguments[3]&&arguments[3],i=n.length-1;if(t<=n[0].t)return r?[0,0,n[0].v]:n[0].v;if(t>=n[i].t)return r?[i,1,n[i].v]:n[i].v;var u,o=n[0],a=null;for(u=1;u<=i;u++){if(!(t>n[u].t)){a=n[u];break}o=n[u]}return null==a?r?[i,1,n[i].v]:n[i].v:o.t===a.t?r?[u,1,a.v]:a.v:(t=(t-o.t)/(a.t-o.t),o.e&&(t=o.e(t)),r?[u,t,e(t,o.v,a.v)]:e(t,o.v,a.v))}function X(t,n){var e=arguments.length>2&&void 0!==arguments[2]?arguments[2]:null;return t&&t.length?"function"!=typeof n?null:("function"!=typeof e&&(e=null),function(r){var i=W(r,t,n);return null!=i&&e&&(i=e(i)),i}):null}function tt(t,n){return t.t-n.t}function nt(t,n,r,i,u){var o,a="@"===r[0],l="#"===r[0],s=U[r],f=B;switch(a?(o=r.substr(1),r=o.replace(H,J)):l&&(r=r.substr(1)),e(s)){case"function":if(f=s(i,u,W,K,r,a,n,t),l)return f;break;case"string":f=X(i,Z(s));break;case"object":if((f=X(i,Z(s.i),s.f))&&"function"==typeof s.u)return s.u(n,f,r,a,t)}return f?function(t,n,e){if(arguments.length>3&&void 0!==arguments[3]&&arguments[3])return t instanceof Q?function(r){return t.style(n,e(r))}:function(r){return t.style[n]=e(r)};if(Array.isArray(n)){var r=n.length;return function(i){var u=e(i);if(null==u)for(var o=0;o<r;o++)t[o].removeAttribute(n);else for(var a=0;a<r;a++)t[a].setAttribute(n,u)}}return function(r){var i=e(r);null==i?t.removeAttribute(n):t.setAttribute(n,i)}}(n,r,f,a):null}function et(t,n,r,i){if(!i||"object"!==e(i))return null;var u=null,o=null;return Array.isArray(i)?o=function(t){if(!t||!t.length)return null;for(var n=0;n<t.length;n++)t[n].e&&(t[n].e=K(t[n].e));return t.sort(tt)}(i):(o=i.keys,u=i.data||null),o?nt(t,n,r,o,u):null}function rt(t,n,e){if(!e)return null;var r=[];for(var i in e)if(e.hasOwnProperty(i)){var u=et(t,n,i,e[i]);u&&r.push(u)}return r.length?r:null}function it(t,n){if(!n.settings.duration||n.settings.duration<0)return null;var e,r,i,u,o,a=function(t,n){if(!n)return null;var e=[];if(Array.isArray(n))for(var r=n.length,i=0;i<r;i++){var u=n[i];if(2===u.length){var o=null;if("string"==typeof u[0])o=t.getElementById(u[0]);else if(Array.isArray(u[0])){o=[];for(var a=0;a<u[0].length;a++)if("string"==typeof u[0][a]){var l=t.getElementById(u[0][a]);l&&o.push(l)}o=o.length?1===o.length?o[0]:new Q(o):null}if(o){var s=rt(t,o,u[1]);s&&(e=e.concat(s))}}}else for(var f in n)if(n.hasOwnProperty(f)){var c=t.getElementById(f);if(c){var h=rt(t,c,n[f]);h&&(e=e.concat(h))}}return e.length?e:null}(t,n.elements);return a?(e=a,r=n.settings,i=r.duration,u=e.length,o=null,function(t,n){var a=r.iterations||1/0,l=(r.alternate&&a%2==0)^r.direction>0?i:0,s=t%i,f=1+(t-s)/i;n*=r.direction,r.alternate&&f%2==0&&(n=-n);var c=!1;if(f>a)s=l,c=!0,-1===r.fill&&(s=r.direction>0?0:i);else if(n<0&&(s=i-s),s===o)return!1;o=s;for(var h=0;h<u;h++)e[h](s);return c}):null}function ut(t,n){for(var e=n.querySelectorAll("svg"),r=0;r<e.length;r++)if(e[r].id===t.root&&!e[r].svgatorAnimation)return e[r].svgatorAnimation=!0,e[r];return null}function ot(t){var n=function(t){return t.shadowRoot};return document?Array.from(t.querySelectorAll(":not("+["a","area","audio","br","canvas","circle","datalist","embed","g","head","hr","iframe","img","input","link","object","path","polygon","rect","script","source","style","svg","title","track","video"].join()+")")).filter(n).map(n):[]}function at(t){var n=arguments.length>1&&void 0!==arguments[1]?arguments[1]:document,e=arguments.length>2&&void 0!==arguments[2]?arguments[2]:0,r=ut(t,n);if(r)return r;if(e>=20)return null;for(var i=ot(n),u=0;u<i.length;u++){var o=at(t,i[u],e+1);if(o)return o}return null}function lt(t,n){if(U=n,!t||!t.root||!Array.isArray(t.animations))return null;var e=at(t);if(!e)return null;var r=t.animations.map((function(t){return it(e,t)})).filter((function(t){return!!t}));return r.length?{svg:e,animations:r,animationSettings:t.animationSettings,options:t.options||void 0}:null}function st(t){var n=arguments.length>1&&void 0!==arguments[1]?arguments[1]:null,e=arguments.length>2&&void 0!==arguments[2]?arguments[2]:Number,r=arguments.length>3&&void 0!==arguments[3]?arguments[3]:"undefined"!=typeof BigInt&&BigInt,i="0x"+(t.replace(/[^0-9a-fA-F]+/g,"")||27);return n&&r&&e.isSafeInteger&&!e.isSafeInteger(+i)?e(r(i))%n+n:+i}function ft(t,n,e){return!t||!e||n>t.length?t:t.substring(0,n)+ft(t.substring(n+1),e,e)}function ct(t){var n=arguments.length>1&&void 0!==arguments[1]?arguments[1]:27;return!t||t%n?t%n:[0,1].includes(n)?n:ct(t/n,n)}function ht(t,n,e){if(t&&t.length){var r=st(e),i=ct(r)+5,u=ft(t,ct(r,5),i);return u=u.replace(/\x7c$/g,"==").replace(/\x2f$/g,"="),u=function(t,n,e){var r=+("0x"+t.substring(0,4));t=t.substring(4);for(var i=st(n,r)%r+e%27,u=[],o=0;o<t.length;o+=2)if("|"!==t[o]){var a=+("0x"+t[o]+t[o+1])-i;u.push(a)}else{var l=+("0x"+t.substring(o+1,o+1+4))-i;o+=3,u.push(l)}return String.fromCharCode.apply(String,u)}(u=(u=atob(u)).replace(/[\x41-\x5A]/g,""),n,r),u=JSON.parse(u)}}var vt=[{key:"alternate",def:!1},{key:"fill",def:1},{key:"iterations",def:0},{key:"direction",def:1},{key:"speed",def:1},{key:"fps",def:100}],yt=function(){function t(n,e){var i=this,u=arguments.length>2&&void 0!==arguments[2]?arguments[2]:null;r(this,t),this._id=0,this._running=!1,this._rollingBack=!1,this._animations=n,this._settings=e,(!u||u<"2022-05-02")&&delete this._settings.speed,vt.forEach((function(t){i._settings[t.key]=i._settings[t.key]||t.def})),this.duration=e.duration,this.offset=e.offset||0,this.rollbackStartOffset=0}return u(t,[{key:"alternate",get:function(){return this._settings.alternate}},{key:"fill",get:function(){return this._settings.fill}},{key:"iterations",get:function(){return this._settings.iterations}},{key:"direction",get:function(){return this._settings.direction}},{key:"speed",get:function(){return this._settings.speed}},{key:"fps",get:function(){return this._settings.fps}},{key:"maxFiniteDuration",get:function(){return this.iterations>0?this.iterations*this.duration:this.duration}},{key:"_apply",value:function(t){for(var n=arguments.length>1&&void 0!==arguments[1]?arguments[1]:{},e=this._animations,r=e.length,i=0,u=0;u<r;u++)n[u]?i++:(n[u]=e[u](t,1),n[u]&&i++);return i}},{key:"_rollback",value:function(t){var n=this,e=1/0,r=null;this.rollbackStartOffset=t,this._rollingBack=!0,this._running=!0;this._id=window.requestAnimationFrame((function i(u){if(n._rollingBack){null==r&&(r=u);var o=Math.round(t-(u-r)*n.speed);if(o>n.duration&&e!==1/0){var a=!!n.alternate&&o/n.duration%2>1,l=o%n.duration;o=(l+=a?n.duration:0)||n.duration}var s=(n.fps?1e3/n.fps:0)*n.speed,f=Math.max(0,o);f<=e-s&&(n.offset=f,e=f,n._apply(f));var c=n.iterations>0&&-1===n.fill&&o>=n.maxFiniteDuration;(o<=0||n.offset<o||c)&&n.stop(),n._id=window.requestAnimationFrame(i)}}))}},{key:"_start",value:function(){var t=this,n=arguments.length>0&&void 0!==arguments[0]?arguments[0]:0,e=-1/0,r=null,i={};this._running=!0;var u=function u(o){null==r&&(r=o);var a=Math.round((o-r)*t.speed+n),l=(t.fps?1e3/t.fps:0)*t.speed;if(a>=e+l&&!t._rollingBack&&(t.offset=a,e=a,t._apply(a,i)===t._animations.length))return void t.pause(!0);t._id=window.requestAnimationFrame(u)};this._id=window.requestAnimationFrame(u)}},{key:"_pause",value:function(){this._id&&window.cancelAnimationFrame(this._id),this._running=!1}},{key:"play",value:function(){if(!this._running)return this._rollingBack?this._rollback(this.offset):this._start(this.offset)}},{key:"stop",value:function(){this._pause(),this.offset=0,this.rollbackStartOffset=0,this._rollingBack=!1,this._apply(0)}},{key:"reachedToEnd",value:function(){return this.iterations>0&&this.offset>=this.iterations*this.duration}},{key:"restart",value:function(){var t=arguments.length>0&&void 0!==arguments[0]&&arguments[0];this.stop(t),this.play(t)}},{key:"pause",value:function(){this._pause()}},{key:"reverse",value:function(){this.direction=-this.direction}}],[{key:"build",value:function(t,n){delete t.animationSettings,t.options=ht(t.options,t.root,"5c7f360c"),t.animations.map((function(n){n.settings=ht(n.s,t.root,"5c7f360c"),delete n.s,t.animationSettings||(t.animationSettings=n.settings)}));var e=t.version;if(!(t=lt(t,n)))return null;var r=t.options||{},i=new this(t.animations,t.animationSettings,e);return{el:t.svg,options:r,player:i}}},{key:"push",value:function(t){return this.build(t)}},{key:"init",value:function(){var t=this,n=window.__SVGATOR_PLAYER__&&window.__SVGATOR_PLAYER__["5c7f360c"];Array.isArray(n)&&n.splice(0).forEach((function(n){return t.build(n)}))}}]),t}();function gt(t){return d(t)+""}function pt(t){var n=arguments.length>1&&void 0!==arguments[1]?arguments[1]:" ";return t&&t.length?t.map(gt).join(n):""}function dt(t){return t?null==t.a||t.a>=1?function(t){if(!t)return"transparent";var n=function(t){return parseInt(t).toString(16).padStart(2,"0")};return function(t){for(var n=[],e="#"===t[0]?n.push("#"):0;e<t.length;e+=2){if(t[e]!==t[e+1])return t;n.push(t[e])}return n.join("")}("#"+n(t.r)+n(t.g)+n(t.b)+(null==t.a||t.a>=1?"":n(255*t.a)))}(t):"rgba("+t.r+","+t.g+","+t.b+","+t.a+")":"transparent"}function mt(t){return t?"url(#"+t+")":"none"}!function(){for(var t=0,n=["ms","moz","webkit","o"],e=0;e<n.length&&!window.requestAnimationFrame;++e)window.requestAnimationFrame=window[n[e]+"RequestAnimationFrame"],window.cancelAnimationFrame=window[n[e]+"CancelAnimationFrame"]||window[n[e]+"CancelRequestAnimationFrame"];window.requestAnimationFrame||(window.requestAnimationFrame=function(n){var e=Date.now(),r=Math.max(0,16-(e-t)),i=window.setTimeout((function(){n(e+r)}),r);return t=e+r,i},window.cancelAnimationFrame=window.clearTimeout)}();var bt={f:null,i:function(t,n,e){return 0===t?n:1===t?e:{x:L(t,n.x,e.x),y:L(t,n.y,e.y)}},u:function(t,n){return function(e){var r=n(e);t.setAttribute("rx",gt(r.x)),t.setAttribute("ry",gt(r.y))}}},wt={f:null,i:function(t,n,e){return 0===t?n:1===t?e:{width:L(t,n.width,e.width),height:L(t,n.height,e.height)}},u:function(t,n){return function(e){var r=n(e);t.setAttribute("width",gt(r.width)),t.setAttribute("height",gt(r.height))}}};Object.freeze({M:2,L:2,Z:0,H:1,V:1,C:6,Q:4,T:2,S:4,A:7});var xt={},_t=null;function At(t){var n=function(){if(_t)return _t;if("object"!==("undefined"==typeof document?"undefined":e(document))||!document.createElementNS)return{};var t=document.createElementNS("http://www.w3.org/2000/svg","svg");return t&&t.style?(t.style.position="absolute",t.style.opacity="0.01",t.style.zIndex="-9999",t.style.left="-9999px",t.style.width="1px",t.style.height="1px",_t={svg:t}):{}}().svg;if(!n)return function(t){return null};var r=document.createElementNS(n.namespaceURI,"path");r.setAttributeNS(null,"d",t),r.setAttributeNS(null,"fill","none"),r.setAttributeNS(null,"stroke","none"),n.appendChild(r);var i=r.getTotalLength();return function(t){var n=r.getPointAtLength(i*t);return{x:n.x,y:n.y}}}function kt(t){return xt[t]?xt[t]:xt[t]=At(t)}function St(t,n,e,r){if(!t||!r)return!1;var i=["M",t.x,t.y];if(n&&e&&(i.push("C"),i.push(n.x),i.push(n.y),i.push(e.x),i.push(e.y)),n?!e:e){var u=n||e;i.push("Q"),i.push(u.x),i.push(u.y)}return n||e||i.push("L"),i.push(r.x),i.push(r.y),i.join(" ")}function Ot(t,n,e,r){var i=arguments.length>4&&void 0!==arguments[4]?arguments[4]:1,u=St(t,n,e,r),o=kt(u);try{return o(i)}catch(t){return null}}function jt(t,n,e){return t+(n-t)*e}function Mt(t,n,e){var r=arguments.length>3&&void 0!==arguments[3]&&arguments[3],i={x:jt(t.x,n.x,e),y:jt(t.y,n.y,e)};return r&&(i.a=Et(t,n)),i}function Et(t,n){return Math.atan2(n.y-t.y,n.x-t.x)}function Pt(t,n,e,r){var i=1-r;return i*i*t+2*i*r*n+r*r*e}function It(t,n,e,r){return 2*(1-r)*(n-t)+2*r*(e-n)}function Rt(t,n,e,r){var i=arguments.length>4&&void 0!==arguments[4]&&arguments[4],u=Ot(t,n,null,e,r);return u||(u={x:Pt(t.x,n.x,e.x,r),y:Pt(t.y,n.y,e.y,r)}),i&&(u.a=Ft(t,n,e,r)),u}function Ft(t,n,e,r){return Math.atan2(It(t.y,n.y,e.y,r),It(t.x,n.x,e.x,r))}function Nt(t,n,e,r,i){var u=i*i;return i*u*(r-t+3*(n-e))+3*u*(t+e-2*n)+3*i*(n-t)+t}function Tt(t,n,e,r,i){var u=1-i;return 3*(u*u*(n-t)+2*u*i*(e-n)+i*i*(r-e))}function qt(t,n,e,r,i){var u=arguments.length>5&&void 0!==arguments[5]&&arguments[5],o=Ot(t,n,e,r,i);return o||(o={x:Nt(t.x,n.x,e.x,r.x,i),y:Nt(t.y,n.y,e.y,r.y,i)}),u&&(o.a=Bt(t,n,e,r,i)),o}function Bt(t,n,e,r,i){return Math.atan2(Tt(t.y,n.y,e.y,r.y,i),Tt(t.x,n.x,e.x,r.x,i))}function Dt(t,n,e){var r=arguments.length>3&&void 0!==arguments[3]&&arguments[3];if(Ct(n)){if(Vt(e))return Rt(n,e.start,e,t,r)}else if(Ct(e)){if(Gt(n))return Rt(n,n.end,e,t,r)}else{if(Gt(n))return Vt(e)?qt(n,n.end,e.start,e,t,r):Rt(n,n.end,e,t,r);if(Vt(e))return Rt(n,e.start,e,t,r)}return Mt(n,e,t,r)}function Lt(t,n,e){var r=Dt(t,n,e,!0);return r.a=x(function(t){return arguments.length>1&&void 0!==arguments[1]&&arguments[1]?t+Math.PI:t}(r.a)),r}function Ct(t){return!t.type||"corner"===t.type}function Vt(t){return null!=t.start&&!Ct(t)}function Gt(t){return null!=t.end&&!Ct(t)}var zt=new T;var Yt={f:gt,i:D},$t={f:gt,i:C};function Ut(t,n,e){return t.map((function(t){return function(t,n,e){var r=t.v;if(!r||"g"!==r.t||r.s||!r.v||!r.r)return t;var i=e.getElementById(r.r),u=i&&i.querySelectorAll("stop")||[];return r.s=r.v.map((function(t,n){var e=u[n]&&u[n].getAttribute("offset");return{c:t,o:e=d(parseInt(e)/100)}})),delete r.v,t}(t,0,e)}))}var Qt={gt:"gradientTransform",c:{x:"cx",y:"cy"},rd:"r",f:{x:"x1",y:"y1"},to:{x:"x2",y:"y2"}};function Ht(t,n,r,i,u,o,a,l){return Ut(t,0,l),n=function(t,n,e){for(var r,i,u,o=t.length-1,a={},l=0;l<=o;l++)(r=t[l]).e&&(r.e=n(r.e)),r.v&&"g"===(i=r.v).t&&i.r&&(u=e.getElementById(i.r))&&(a[i.r]={e:u,s:u.querySelectorAll("stop")});return a}(t,i,l),function(i){var u=r(i,t,Jt);if(!u)return"none";if("c"===u.t)return dt(u.v);if("g"===u.t){if(!n[u.r])return mt(u.r);var o=n[u.r];return function(t,n){for(var e=t.s,r=e.length;r<n.length;r++){var i=e[e.length-1].cloneNode();i.id=Wt(i.id),t.e.appendChild(i),e=t.s=t.e.querySelectorAll("stop")}for(var u=0,o=e.length,a=n.length-1;u<o;u++)e[u].setAttribute("stop-color",dt(n[Math.min(u,a)].c)),e[u].setAttribute("offset",n[Math.min(u,a)].o)}(o,u.s),Object.keys(Qt).forEach((function(t){if(void 0!==u[t])if("object"!==e(Qt[t])){var n,r="gt"===t?(n=u[t],Array.isArray(n)?"matrix("+n.join(" ")+")":""):u[t],i=Qt[t];o.e.setAttribute(i,r)}else Object.keys(Qt[t]).forEach((function(n){if(void 0!==u[t][n]){var e=u[t][n],r=Qt[t][n];o.e.setAttribute(r,e)}}))})),mt(u.r)}return"none"}}function Jt(t,e,r){if(0===t)return e;if(1===t)return r;if(e&&r){var i=e.t;if(i===r.t)switch(e.t){case"c":return{t:i,v:z(t,e.v,r.v)};case"g":if(e.r===r.r){var u={t:i,s:Zt(t,e.s,r.s),r:e.r};return e.gt&&r.gt&&(u.gt=function(t,n,e){var r=n.length;if(r!==e.length)return B(t,n,e);for(var i=new Array(r),u=0;u<r;u++)i[u]=D(t,n[u],e[u]);return i}(t,e.gt,r.gt)),e.c?(u.c=V(t,e.c,r.c),u.rd=L(t,e.rd,r.rd)):e.f&&(u.f=V(t,e.f,r.f),u.to=V(t,e.to,r.to)),u}}if("c"===e.t&&"g"===r.t||"c"===r.t&&"g"===e.t){var o="c"===e.t?e:r,a="g"===e.t?n({},e):n({},r),l=a.s.map((function(t){return{c:o.v,o:t.o}}));return a.s="c"===e.t?Zt(t,l,a.s):Zt(t,a.s,l),a}}return B(t,e,r)}function Zt(t,n,e){if(n.length===e.length)return n.map((function(n,r){return Kt(t,n,e[r])}));for(var r=Math.max(n.length,e.length),i=[],u=0;u<r;u++){var o=Kt(t,n[Math.min(u,n.length-1)],e[Math.min(u,e.length-1)]);i.push(o)}return i}function Kt(t,n,e){return{o:C(t,n.o,e.o||0),c:z(t,n.c,e.c||{})}}function Wt(t){return t.replace(/-fill-([0-9]+)$/,(function(t,n){return"-fill-"+(+n+1)}))}var Xt={fill:Ht,"fill-opacity":$t,stroke:Ht,"stroke-opacity":$t,"stroke-width":Yt,"stroke-dashoffset":{f:gt,i:D},"stroke-dasharray":{f:function(t){var n=arguments.length>1&&void 0!==arguments[1]?arguments[1]:" ";return t&&t.length>0&&(t=t.map((function(t){return d(t,4)}))),pt(t,n)},i:function(t,n,e){var r,i,u,o=n.length,a=e.length;if(o!==a)if(0===o)n=Y(o=a,0);else if(0===a)a=o,e=Y(o,0);else{var l=(u=(r=o)*(i=a)/function(t,n){for(var e;n;)e=n,n=t%n,t=e;return t||1}(r,i))<0?-u:u;n=$(n,Math.floor(l/o)),e=$(e,Math.floor(l/a)),o=a=l}for(var s=[],f=0;f<o;f++)s.push(d(L(t,n[f],e[f])));return s}},opacity:$t,transform:function(t,n,r,i){if(!(t=function(t,n){if(!t||"object"!==e(t))return null;var r=!1;for(var i in t)t.hasOwnProperty(i)&&(t[i]&&t[i].length?(t[i].forEach((function(t){t.e&&(t.e=n(t.e))})),r=!0):delete t[i]);return r?t:null}(t,i)))return null;var u=function(e,i,u){var o=arguments.length>3&&void 0!==arguments[3]?arguments[3]:null;return t[e]?r(i,t[e],u):n&&n[e]?n[e]:o};return n&&n.a&&t.o?function(n){var e=r(n,t.o,Lt);return zt.recomposeSelf(e,u("r",n,D,0)+e.a,u("k",n,V),u("s",n,V),u("t",n,V)).toString()}:function(t){return zt.recomposeSelf(u("o",t,Dt,null),u("r",t,D,0),u("k",t,V),u("s",t,V),u("t",t,V)).toString()}},r:Yt,"#size":wt,"#radius":bt,_:function(t,n){if(Array.isArray(t))for(var e=0;e<t.length;e++)this[t[e]]=n;else this[t]=n}},tn=function(t){!function(t,n){if("function"!=typeof n&&null!==n)throw new TypeError("Super expression must either be null or a function");t.prototype=Object.create(n&&n.prototype,{constructor:{value:t,writable:!0,configurable:!0}}),n&&l(t,n)}(o,t);var n,e,i=(n=o,e=s(),function(){var t,r=a(n);if(e){var i=a(this).constructor;t=Reflect.construct(r,arguments,i)}else t=r.apply(this,arguments);return c(this,t)});function o(){return r(this,o),i.apply(this,arguments)}return u(o,null,[{key:"build",value:function(t){var n=h(a(o),"build",this).call(this,t,Xt);if(!n)return null;n.el,n.options,function(t,n,e){t.play()}(n.player)}}]),o}(yt);return tn.init(),tn}));
(function(s,i,o,w,d,a,b){w[o]=w[o]||{};w[o][s]=w[o][s]||[];w[o][s].push(i);})('5c7f360c',{"root":"eFzWc1IJ6ey1","version":"2022-05-04","animations":[{"elements":{"eFzWc1IJ6ey2":{"transform":{"data":{"t":{"x":-35,"y":-31.0002}},"keys":{"o":[{"t":0,"v":{"x":35.000077,"y":-12.0002,"type":"corner"}},{"t":500,"v":{"x":35.000077,"y":30.999846,"type":"corner"}}]}}},"eFzWc1IJ6ey3":{"transform":{"data":{"t":{"x":-34.999999,"y":-27.000001}},"keys":{"o":[{"t":500,"v":{"x":34.999999,"y":-3.999845,"type":"corner"}},{"t":1000,"v":{"x":34.999999,"y":27.000001,"type":"corner"}}]}}}},"s":"MADA1ZGQyNzliYmNjYzVliOGNiYzBjNmM1NzkV5MUI4ODhjODc4NzgzPNzliYmMwYzliY05iYNWNiYzBjNmM1Nzk5MTIg4ODM3OWMwTGNiYmNDjOWI4Y2JjMGM2YzVGMY2E3OTkxODc4Mzc5YLmRjMGMzTmMzNzk5MVVI4ODgzNzliOGMzY2JXiY2M5YzViOGNiYmM3AOUs5MWJkYjhjM2NhYFmM4Mzc5Y2FjN2JjYmENiYkdFNzk5MVI4ODgVzSTc5YmRjN2NhNzlMMOTE4OFc4Nzg3ZDQ/"}],"options":"MLDAxMDg4MmY4MDgxNmIU3ZjgxWTJmNDcyZjcB5N2M2ZTcxMmY4YQ|"},'__SVGATOR_PLAYER__',window,document)
]]></script>
</svg>
